<svg width="30" height="30" viewBox="0 0 30 30" fill="none" xmlns="http://www.w3.org/2000/svg">
<path d="M19.7813 13.9219H16.0313V10.2187C16.0313 9.65625 15.5625 9.1875 14.9531 9.1875C14.3906 9.1875 13.9219 9.65625 13.9219 10.2656V13.9687H10.2187C9.65625 13.9687 9.1875 14.4375 9.1875 15.0469C9.1875 15.6094 9.65625 16.0781 10.2656 16.0781H13.9687V19.7813C13.9687 20.3438 14.4375 20.8125 15.0469 20.8125C15.6094 20.8125 16.0781 20.3437 16.0781 19.7344V16.0313H19.7813C20.3438 16.0313 20.8125 15.5625 20.8125 14.9531C20.8125 14.3906 20.3438 13.9219 19.7813 13.9219Z" fill="#3758F9"/>
<path d="M15 0.84375C7.17187 0.84375 0.84375 7.17188 0.84375 15C0.84375 22.8281 7.21875 29.2031 15.0469 29.2031C22.875 29.2031 29.25 22.8281 29.25 15C29.2031 7.17188 22.8281 0.84375 15 0.84375ZM15 27.0938C8.34375 27.0938 2.95312 21.6563 2.95312 15C2.95312 8.34375 8.34375 2.95312 15 2.95312C21.6562 2.95312 27.0937 8.34375 27.0937 15C27.0937 21.6563 21.6562 27.0938 15 27.0938Z" fill="#3758F9"/>
</svg>
