<svg width="22" height="22" viewBox="0 0 22 22" fill="none" xmlns="http://www.w3.org/2000/svg">
<path d="M12.2001 11L21.3501 1.84998C21.6876 1.51248 21.6876 0.987476 21.3501 0.649976C21.0126 0.312476 20.4876 0.312476 20.1501 0.649976L11.0001 9.79998L1.8501 0.649976C1.5126 0.312476 0.987598 0.312476 0.650098 0.649976C0.312598 0.987476 0.312598 1.51248 0.650098 1.84998L9.8001 11L0.650098 20.15C0.312598 20.4875 0.312598 21.0125 0.650098 21.35C0.800098 21.5 1.0251 21.6125 1.2501 21.6125C1.4751 21.6125 1.7001 21.5375 1.8501 21.35L11.0001 12.2L20.1501 21.35C20.3001 21.5 20.5251 21.6125 20.7501 21.6125C20.9751 21.6125 21.2001 21.5375 21.3501 21.35C21.6876 21.0125 21.6876 20.4875 21.3501 20.15L12.2001 11Z" fill="#111928"/>
</svg>
