<svg width="24" height="25" viewBox="0 0 24 25" fill="none" xmlns="http://www.w3.org/2000/svg">
<g clip-path="url(#clip0_503_500)">
<path d="M8.66238 22.5673H3.86238C3.48738 22.5673 3.18738 22.2673 3.18738 21.8923V3.89235C3.18738 3.51735 3.48738 3.21735 3.86238 3.21735H12.3374V8.01735C12.3374 8.46735 12.7124 8.87985 13.1999 8.87985H17.9624V11.3923C17.9624 11.8423 18.3374 12.2548 18.8249 12.2548C19.3124 12.2548 19.6874 11.8798 19.6874 11.3923V8.24235C19.6874 7.82985 19.4999 7.41735 19.1999 7.11735L13.9499 2.01735C13.6499 1.71735 13.2374 1.56735 12.8249 1.56735H3.82488C2.54988 1.52985 1.49988 2.61735 1.49988 3.89235V21.8923C1.49988 23.1673 2.54988 24.2548 3.86238 24.2548H8.69988C9.14988 24.2548 9.56238 23.8798 9.56238 23.3923C9.56238 22.9048 9.14988 22.5673 8.66238 22.5673ZM13.9874 4.41735L16.7999 7.19235H13.9874V4.41735Z" fill="#111928"/>
<path d="M22.1999 14.9923C21.8999 14.6923 21.5999 14.3923 21.2999 14.0923C21.0374 13.8298 20.7749 13.5298 20.4749 13.2673C20.3249 13.0798 20.0999 12.9298 19.8374 12.8923C19.5374 12.8548 19.2374 12.9298 19.0124 13.1173L12.4874 19.6048C12.2999 19.7923 12.1874 19.9798 12.1124 20.2048L11.1749 23.0548L11.0249 23.5048L11.2874 23.8423C11.3999 23.9923 11.6249 24.2173 12.0374 24.2173H12.1874L15.1499 23.2423C15.3749 23.1673 15.5999 23.0548 15.7499 22.8673L22.1999 16.4548C22.3874 16.2673 22.4999 16.0048 22.4999 15.7048C22.4999 15.4423 22.3874 15.1798 22.1999 14.9923ZM19.6874 14.8423C19.8374 14.9923 19.9874 15.1423 20.0999 15.2923C20.2499 15.4423 20.3999 15.5923 20.5499 15.7423L20.1374 16.1548L19.2749 15.2923L19.6874 14.8423ZM14.5874 21.6673L13.2749 22.0798L13.6874 20.7673L18.0374 16.4173L18.8999 17.2798L14.5874 21.6673Z" fill="#111928"/>
</g>
<defs>
<clipPath id="clip0_503_500">
<rect width="24" height="24" fill="white" transform="translate(-0.00012207 0.892334)"/>
</clipPath>
</defs>
</svg>
