<svg width="18" height="24" viewBox="0 0 18 24" fill="none" xmlns="http://www.w3.org/2000/svg">
<path d="M15.3374 3.19229H12.4499V2.55478C12.4499 1.42978 11.5499 0.529785 10.4249 0.529785H7.53739C6.41239 0.529785 5.51239 1.42978 5.51239 2.55478V3.19229H2.62489C1.53739 3.19229 0.63739 4.09229 0.63739 5.17979V6.30478C0.63739 7.12978 1.12489 7.80478 1.83739 8.10478L2.43739 21.0798C2.51239 22.3173 3.48739 23.2548 4.72489 23.2548H13.1624C14.3999 23.2548 15.4124 22.2798 15.4499 21.0798L16.1249 8.06728C16.8374 7.76728 17.3249 7.05478 17.3249 6.26728V5.14228C17.3249 4.09228 16.4249 3.19229 15.3374 3.19229ZM7.23739 2.55478C7.23739 2.36728 7.38739 2.21729 7.57489 2.21729H10.4624C10.6499 2.21729 10.7999 2.36728 10.7999 2.55478V3.19229H7.27489V2.55478H7.23739ZM2.36239 5.17979C2.36239 5.02979 2.47489 4.87978 2.66239 4.87978H15.3374C15.4874 4.87978 15.6374 4.99229 15.6374 5.17979V6.30478C15.6374 6.45478 15.5249 6.60478 15.3374 6.60478H2.66239C2.51239 6.60478 2.36239 6.49228 2.36239 6.30478V5.17979V5.17979ZM13.1999 21.5673H4.79989C4.46239 21.5673 4.19989 21.3048 4.19989 21.0048L3.59989 8.29228H14.4374L13.8374 21.0048C13.7999 21.3048 13.5374 21.5673 13.1999 21.5673Z" fill="#111928"/>
<path d="M8.99989 11.5548C8.54989 11.5548 8.13739 11.9298 8.13739 12.4173V18.2298C8.13739 18.6798 8.51239 19.0923 8.99989 19.0923C9.44989 19.0923 9.86239 18.7173 9.86239 18.2298V12.3798C9.86239 11.9298 9.44989 11.5548 8.99989 11.5548Z" fill="#111928"/>
<path d="M12.4874 12.2672C12.0374 12.2297 11.6249 12.6047 11.5874 13.0547L11.3624 17.3672C11.3249 17.8172 11.6999 18.2297 12.1499 18.2672H12.1874C12.6374 18.2672 13.0124 17.9297 13.0124 17.4797L13.2374 13.1672C13.3124 12.6797 12.9374 12.3047 12.4874 12.2672Z" fill="#111928"/>
<path d="M5.4749 12.2672C5.0249 12.3047 4.6499 12.6797 4.6874 13.1672L4.9499 17.5172C4.9874 17.9672 5.3624 18.3047 5.7749 18.3047H5.8124C6.2624 18.2672 6.6374 17.8922 6.5999 17.4047L6.3749 13.0547C6.3374 12.6047 5.9249 12.2297 5.4749 12.2672Z" fill="#111928"/>
</svg>
